# xmcd CD database file
#
# Track frame offsets:
#	183
#	15550
#	29808
#	42718
#	59790
#	71603
#	88435
#	99825
#	117260
#	130948
#
# Disc length: 1942 seconds
#
# Revision: 0
# Processed by: cddbd v1.4PL0 Copyright (c) Steve Scherf et al.
# Submitted via: CDex 1.40Beta8
#
DISCID=9507940a
DTITLE=Major Dundee - Making history
DYEAR=1900
DGENRE=Country
TTITLE0=Making history
TTITLE1=Trouble honey
TTITLE2=Old friends
TTITLE3=Hi ho silver
TTITLE4=My baby
TTITLE5=Some other guy
TTITLE6=Goin' loco
TTITLE7=White horses
TTITLE8=Dream again
TTITLE9=Colinda's home
EXTD=ID3G: 2
EXTT0=
EXTT1=
EXTT2=
EXTT3=
EXTT4=
EXTT5=
EXTT6=
EXTT7=
EXTT8=
EXTT9=
PLAYORDER=
